<?xml version="1.0" encoding="UTF-8" standalone="no"?>
<!DOCTYPE svg PUBLIC "-//W3C//DTD SVG 1.1//EN"
 "http://www.w3.org/Graphics/SVG/1.1/DTD/svg11.dtd">
<!-- Generated by graphviz version 14.1.4 (20260321.0153)
 -->
<!-- Title: ER_Diagram Pages: 1 -->
<svg width="641pt" height="299pt"
 viewBox="0.00 0.00 641.00 299.00" xmlns="http://www.w3.org/2000/svg" xmlns:xlink="http://www.w3.org/1999/xlink">
<g id="graph0" class="graph" transform="scale(1 1) rotate(0) translate(4 295.25)">
<title>ER_Diagram</title>
<polygon fill="white" stroke="none" points="-4,4 -4,-295.25 636.5,-295.25 636.5,4 -4,4"/>
<!-- User -->
<g id="node1" class="node">
<title>User</title>
<polygon fill="#e1f5fe" stroke="black" points="470.25,-234.5 393.5,-234.5 393.5,-144 470.25,-144 470.25,-234.5"/>
<text xml:space="preserve" text-anchor="middle" x="431.88" y="-217.2" font-family="Times New Roman,serif" font-size="14.00">User</text>
<text xml:space="preserve" text-anchor="middle" x="431.88" y="-200.7" font-family="Times New Roman,serif" font-size="14.00">&#45; id</text>
<text xml:space="preserve" text-anchor="middle" x="431.88" y="-184.2" font-family="Times New Roman,serif" font-size="14.00">&#45; username</text>
<text xml:space="preserve" text-anchor="middle" x="431.88" y="-167.7" font-family="Times New Roman,serif" font-size="14.00">&#45; password</text>
<text xml:space="preserve" text-anchor="middle" x="431.88" y="-151.2" font-family="Times New Roman,serif" font-size="14.00">&#45; role</text>
</g>
<!-- UserProfile -->
<g id="node2" class="node">
<title>UserProfile</title>
<polygon fill="#e1f5fe" stroke="black" points="308,-199.5 196.75,-199.5 196.75,-109 308,-109 308,-199.5"/>
<text xml:space="preserve" text-anchor="middle" x="252.38" y="-182.2" font-family="Times New Roman,serif" font-size="14.00">UserProfile</text>
<text xml:space="preserve" text-anchor="middle" x="252.38" y="-165.7" font-family="Times New Roman,serif" font-size="14.00">&#45; id</text>
<text xml:space="preserve" text-anchor="middle" x="252.38" y="-149.2" font-family="Times New Roman,serif" font-size="14.00">&#45; user_id (FK)</text>
<text xml:space="preserve" text-anchor="middle" x="252.38" y="-132.7" font-family="Times New Roman,serif" font-size="14.00">&#45; delivery_coords</text>
<text xml:space="preserve" text-anchor="middle" x="252.38" y="-116.2" font-family="Times New Roman,serif" font-size="14.00">&#45; dietary_prefs</text>
</g>
<!-- UserProfile&#45;&gt;User -->
<g id="edge1" class="edge">
<title>UserProfile&#45;&gt;User</title>
<path fill="none" stroke="black" d="M312.98,-166C337.74,-170.88 365.9,-176.44 388.48,-180.89"/>
<polygon fill="black" stroke="black" points="308.09,-170.14 310.03,-160.32 311.99,-160.71 310.06,-170.52 308.09,-170.14"/>
<polyline fill="none" stroke="black" points="308.08,-165.04 312.98,-166"/>
<polygon fill="black" stroke="black" points="393.2,-176.73 391.27,-186.54 389.31,-186.15 391.24,-176.34 393.2,-176.73"/>
<polyline fill="none" stroke="black" points="393.22,-181.82 388.31,-180.86"/>
<text xml:space="preserve" text-anchor="middle" x="342.88" y="-177.05" font-family="Times New Roman,serif" font-size="14.00">1:1</text>
</g>
<!-- Restaurant -->
<g id="node3" class="node">
<title>Restaurant</title>
<polygon fill="#e1f5fe" stroke="black" points="492.75,-82.25 371,-82.25 371,-8.25 492.75,-8.25 492.75,-82.25"/>
<text xml:space="preserve" text-anchor="middle" x="431.88" y="-64.95" font-family="Times New Roman,serif" font-size="14.00">Restaurant</text>
<text xml:space="preserve" text-anchor="middle" x="431.88" y="-48.45" font-family="Times New Roman,serif" font-size="14.00">&#45; id</text>
<text xml:space="preserve" text-anchor="middle" x="431.88" y="-31.95" font-family="Times New Roman,serif" font-size="14.00">&#45; name</text>
<text xml:space="preserve" text-anchor="middle" x="431.88" y="-15.45" font-family="Times New Roman,serif" font-size="14.00">&#45; operational_hours</text>
</g>
<!-- CuisineTag -->
<g id="node7" class="node">
<title>CuisineTag</title>
<polygon fill="#e1f5fe" stroke="black" points="632.5,-74 555,-74 555,-16.5 632.5,-16.5 632.5,-74"/>
<text xml:space="preserve" text-anchor="middle" x="593.75" y="-56.7" font-family="Times New Roman,serif" font-size="14.00">CuisineTag</text>
<text xml:space="preserve" text-anchor="middle" x="593.75" y="-40.2" font-family="Times New Roman,serif" font-size="14.00">&#45; id</text>
<text xml:space="preserve" text-anchor="middle" x="593.75" y="-23.7" font-family="Times New Roman,serif" font-size="14.00">&#45; name</text>
</g>
<!-- Restaurant&#45;&gt;CuisineTag -->
<g id="edge6" class="edge">
<title>Restaurant&#45;&gt;CuisineTag</title>
<path fill="none" stroke="black" d="M503.19,-45.25C517.18,-45.25 531.56,-45.25 544.59,-45.25"/>
<polygon fill="black" stroke="black" points="503.2,-45.25 493.2,-40.75 497.86,-45.25 493.53,-45.25 493.53,-45.25 493.53,-45.25 497.86,-45.25 493.2,-49.75 503.2,-45.25"/>
<polygon fill="black" stroke="black" points="544.39,-45.25 554.39,-49.75 549.72,-45.25 554.05,-45.25 554.05,-45.25 554.05,-45.25 549.72,-45.25 554.39,-40.75 544.39,-45.25"/>
<text xml:space="preserve" text-anchor="middle" x="523.88" y="-48.45" font-family="Times New Roman,serif" font-size="14.00">N:M</text>
</g>
<!-- MenuItem -->
<g id="node4" class="node">
<title>MenuItem</title>
<polygon fill="#e1f5fe" stroke="black" points="314.75,-90.5 190,-90.5 190,0 314.75,0 314.75,-90.5"/>
<text xml:space="preserve" text-anchor="middle" x="252.38" y="-73.2" font-family="Times New Roman,serif" font-size="14.00">MenuItem</text>
<text xml:space="preserve" text-anchor="middle" x="252.38" y="-56.7" font-family="Times New Roman,serif" font-size="14.00">&#45; id</text>
<text xml:space="preserve" text-anchor="middle" x="252.38" y="-40.2" font-family="Times New Roman,serif" font-size="14.00">&#45; restaurant_id (FK)</text>
<text xml:space="preserve" text-anchor="middle" x="252.38" y="-23.7" font-family="Times New Roman,serif" font-size="14.00">&#45; name</text>
<text xml:space="preserve" text-anchor="middle" x="252.38" y="-7.2" font-family="Times New Roman,serif" font-size="14.00">&#45; price</text>
</g>
<!-- MenuItem&#45;&gt;Restaurant -->
<g id="edge2" class="edge">
<title>MenuItem&#45;&gt;Restaurant</title>
<path fill="none" stroke="black" d="M314.96,-45.25C329.6,-45.25 345.34,-45.25 360.35,-45.25"/>
<polygon fill="black" stroke="black" points="360.27,-45.25 370.27,-49.75 365.6,-45.25 369.93,-45.25 369.93,-45.25 369.93,-45.25 365.6,-45.25 370.27,-40.75 360.27,-45.25"/>
<text xml:space="preserve" text-anchor="middle" x="342.88" y="-48.45" font-family="Times New Roman,serif" font-size="14.00">N:1</text>
</g>
<!-- Order -->
<g id="node5" class="node">
<title>Order</title>
<polygon fill="#e1f5fe" stroke="black" points="299.38,-291.25 205.38,-291.25 205.38,-217.25 299.38,-217.25 299.38,-291.25"/>
<text xml:space="preserve" text-anchor="middle" x="252.38" y="-273.95" font-family="Times New Roman,serif" font-size="14.00">Order</text>
<text xml:space="preserve" text-anchor="middle" x="252.38" y="-257.45" font-family="Times New Roman,serif" font-size="14.00">&#45; id</text>
<text xml:space="preserve" text-anchor="middle" x="252.38" y="-240.95" font-family="Times New Roman,serif" font-size="14.00">&#45; user_id (FK)</text>
<text xml:space="preserve" text-anchor="middle" x="252.38" y="-224.45" font-family="Times New Roman,serif" font-size="14.00">&#45; status</text>
</g>
<!-- Order&#45;&gt;User -->
<g id="edge3" class="edge">
<title>Order&#45;&gt;User</title>
<path fill="none" stroke="black" d="M299.55,-237.34C325.32,-227.9 357.38,-216.16 383.37,-206.65"/>
<polygon fill="black" stroke="black" points="383.3,-206.67 394.24,-207.46 388.31,-204.84 392.38,-203.35 392.38,-203.35 392.38,-203.35 388.31,-204.84 391.15,-199.01 383.3,-206.67"/>
<text xml:space="preserve" text-anchor="middle" x="342.88" y="-226.9" font-family="Times New Roman,serif" font-size="14.00">N:1</text>
</g>
<!-- OrderItem -->
<g id="node6" class="node">
<title>OrderItem</title>
<polygon fill="#e1f5fe" stroke="black" points="133.75,-194.5 0,-194.5 0,-104 133.75,-104 133.75,-194.5"/>
<text xml:space="preserve" text-anchor="middle" x="66.88" y="-177.2" font-family="Times New Roman,serif" font-size="14.00">OrderItem</text>
<text xml:space="preserve" text-anchor="middle" x="66.88" y="-160.7" font-family="Times New Roman,serif" font-size="14.00">&#45; id</text>
<text xml:space="preserve" text-anchor="middle" x="66.88" y="-144.2" font-family="Times New Roman,serif" font-size="14.00">&#45; order_id (FK)</text>
<text xml:space="preserve" text-anchor="middle" x="66.88" y="-127.7" font-family="Times New Roman,serif" font-size="14.00">&#45; menu_item_id (FK)</text>
<text xml:space="preserve" text-anchor="middle" x="66.88" y="-111.2" font-family="Times New Roman,serif" font-size="14.00">&#45; quantity</text>
</g>
<!-- OrderItem&#45;&gt;MenuItem -->
<g id="edge5" class="edge">
<title>OrderItem&#45;&gt;MenuItem</title>
<path fill="none" stroke="black" d="M134.12,-111.7C149.23,-103.14 165.33,-94.02 180.62,-85.35"/>
<polygon fill="black" stroke="black" points="180.52,-85.41 191.43,-84.39 185.16,-82.78 188.92,-80.64 188.92,-80.64 188.92,-80.64 185.16,-82.78 187,-76.56 180.52,-85.41"/>
<text xml:space="preserve" text-anchor="middle" x="161.88" y="-103.57" font-family="Times New Roman,serif" font-size="14.00">N:1</text>
</g>
<!-- OrderItem&#45;&gt;Order -->
<g id="edge4" class="edge">
<title>OrderItem&#45;&gt;Order</title>
<path fill="none" stroke="black" d="M134.12,-187.16C154.42,-198.77 176.52,-211.42 196.01,-222.57"/>
<polygon fill="black" stroke="black" points="196.09,-222.61 202.53,-231.49 200.72,-225.26 204.47,-227.41 204.47,-227.41 204.47,-227.41 200.72,-225.26 207,-223.67 196.09,-222.61"/>
<text xml:space="preserve" text-anchor="middle" x="161.88" y="-211.24" font-family="Times New Roman,serif" font-size="14.00">N:1</text>
</g>
</g>
</svg>
