<?xml version="1.0" encoding="UTF-8" standalone="no"?>
<!DOCTYPE svg PUBLIC "-//W3C//DTD SVG 1.1//EN"
 "http://www.w3.org/Graphics/SVG/1.1/DTD/svg11.dtd">
<!-- Generated by graphviz version 14.1.3 (0)
 -->
<!-- Title: OmniEats_System_Architecture Pages: 1 -->
<svg width="680pt" height="474pt"
 viewBox="0.00 0.00 680.00 474.00" xmlns="http://www.w3.org/2000/svg" xmlns:xlink="http://www.w3.org/1999/xlink">
<g id="graph0" class="graph" transform="scale(1 1) rotate(0) translate(4 469.89)">
<title>OmniEats_System_Architecture</title>
<polygon fill="white" stroke="none" points="-4,4 -4,-469.89 676,-469.89 676,4 -4,4"/>
<g id="clust1" class="cluster">
<title>cluster_kubernetes</title>
<polygon fill="#f9f9f9" stroke="black" stroke-dasharray="5,2" points="8,-8 8,-367.45 664,-367.45 664,-8 8,-8"/>
<text xml:space="preserve" text-anchor="middle" x="336" y="-350.15" font-family="Helvetica,Arial,sans-serif" font-size="14.00">Kubernetes Cluster</text>
</g>
<g id="clust2" class="cluster">
<title>cluster_identity</title>
<polygon fill="#e3f2fd" stroke="#bbdefb" points="138,-16 138,-241.15 276,-241.15 276,-16 138,-16"/>
<text xml:space="preserve" text-anchor="middle" x="207" y="-223.85" font-family="Helvetica,Arial,sans-serif" font-size="14.00">Identity Domain</text>
</g>
<g id="clust3" class="cluster">
<title>cluster_restaurant</title>
<polygon fill="#e8f5e9" stroke="#c8e6c9" points="284,-16 284,-241.15 656,-241.15 656,-16 284,-16"/>
<text xml:space="preserve" text-anchor="middle" x="470" y="-223.85" font-family="Helvetica,Arial,sans-serif" font-size="14.00">Restaurant &amp; Order Domain (Multi&#45;Tenant)</text>
</g>
<!-- client -->
<g id="node1" class="node">
<title>client</title>
<ellipse fill="#e1f5fe" stroke="black" cx="264" cy="-434.92" rx="94.61" ry="30.97"/>
<text xml:space="preserve" text-anchor="middle" x="264" y="-429.12" font-family="Helvetica,Arial,sans-serif" font-size="14.00">React Web Client</text>
</g>
<!-- gateway -->
<g id="node2" class="node">
<title>gateway</title>
<polygon fill="#c8e6c9" stroke="black" points="345.9,-336.45 182.1,-336.45 182.1,-277.65 345.9,-277.65 345.9,-336.45"/>
<text xml:space="preserve" text-anchor="middle" x="264" y="-308.75" font-family="Helvetica,Arial,sans-serif" font-size="14.00">Spring Cloud Gateway</text>
<text xml:space="preserve" text-anchor="middle" x="264" y="-293.75" font-family="Helvetica,Arial,sans-serif" font-size="14.00">(Entrypoint)</text>
</g>
<!-- client&#45;&gt;gateway -->
<g id="edge1" class="edge">
<title>client&#45;&gt;gateway</title>
<path fill="none" stroke="black" d="M264,-403.45C264,-386.86 264,-366.12 264,-348.22"/>
<polygon fill="black" stroke="black" points="267.5,-348.46 264,-338.46 260.5,-348.46 267.5,-348.46"/>
<text xml:space="preserve" text-anchor="middle" x="283.12" y="-376.45" font-family="Helvetica,Arial,sans-serif" font-size="10.00"> HTTPS </text>
</g>
<!-- redis -->
<g id="node3" class="node">
<title>redis</title>
<path fill="#ffcc80" stroke="black" d="M129.78,-97.5C129.78,-101.56 104.33,-104.85 73,-104.85 41.67,-104.85 16.23,-101.56 16.23,-97.5 16.23,-97.5 16.23,-31.35 16.23,-31.35 16.23,-27.29 41.67,-24 73,-24 104.33,-24 129.78,-27.29 129.78,-31.35 129.78,-31.35 129.78,-97.5 129.78,-97.5"/>
<path fill="none" stroke="black" d="M129.78,-97.5C129.78,-93.44 104.33,-90.15 73,-90.15 41.67,-90.15 16.23,-93.44 16.23,-97.5"/>
<text xml:space="preserve" text-anchor="middle" x="73" y="-66.12" font-family="Helvetica,Arial,sans-serif" font-size="14.00">Redis Cache</text>
<text xml:space="preserve" text-anchor="middle" x="73" y="-51.12" font-family="Helvetica,Arial,sans-serif" font-size="14.00">(JWT Tokens)</text>
</g>
<!-- gateway&#45;&gt;redis -->
<g id="edge5" class="edge">
<title>gateway&#45;&gt;redis</title>
<path fill="none" stroke="black" d="M181.78,-300.46C141,-293.04 95.1,-276.67 69.5,-241.15 43.69,-205.32 48.18,-153.85 56.96,-115.86"/>
<polygon fill="black" stroke="black" points="60.27,-117.06 59.29,-106.51 53.47,-115.36 60.27,-117.06"/>
<text xml:space="preserve" text-anchor="middle" x="101.75" y="-176.5" font-family="Helvetica,Arial,sans-serif" font-size="10.00"> Validate JWT </text>
</g>
<!-- id_svc -->
<g id="node4" class="node">
<title>id_svc</title>
<polygon fill="white" stroke="black" points="267.9,-210.15 146.1,-210.15 146.1,-206.15 142.1,-206.15 142.1,-202.15 146.1,-202.15 146.1,-159.35 142.1,-159.35 142.1,-155.35 146.1,-155.35 146.1,-151.35 267.9,-151.35 267.9,-210.15"/>
<polyline fill="none" stroke="black" points="146.1,-206.15 150.1,-206.15 150.1,-202.15 146.1,-202.15"/>
<polyline fill="none" stroke="black" points="146.1,-159.35 150.1,-159.35 150.1,-155.35 146.1,-155.35"/>
<text xml:space="preserve" text-anchor="middle" x="207" y="-182.45" font-family="Helvetica,Arial,sans-serif" font-size="14.00">Identity Service</text>
<text xml:space="preserve" text-anchor="middle" x="207" y="-167.45" font-family="Helvetica,Arial,sans-serif" font-size="14.00">(Auth &amp; Users)</text>
</g>
<!-- gateway&#45;&gt;id_svc -->
<g id="edge2" class="edge">
<title>gateway&#45;&gt;id_svc</title>
<path fill="none" stroke="black" d="M250.78,-277.22C243.08,-260.43 233.27,-239.04 224.89,-220.77"/>
<polygon fill="black" stroke="black" points="228.13,-219.43 220.78,-211.8 221.77,-222.35 228.13,-219.43"/>
<text xml:space="preserve" text-anchor="middle" x="264.03" y="-250.15" font-family="Helvetica,Arial,sans-serif" font-size="10.00"> /api/auth </text>
</g>
<!-- restA -->
<g id="node6" class="node">
<title>restA</title>
<polygon fill="white" stroke="black" points="446.02,-210.15 291.98,-210.15 291.98,-206.15 287.98,-206.15 287.98,-202.15 291.98,-202.15 291.98,-159.35 287.98,-159.35 287.98,-155.35 291.98,-155.35 291.98,-151.35 446.02,-151.35 446.02,-210.15"/>
<polyline fill="none" stroke="black" points="291.98,-206.15 295.98,-206.15 295.98,-202.15 291.98,-202.15"/>
<polyline fill="none" stroke="black" points="291.98,-159.35 295.98,-159.35 295.98,-155.35 291.98,-155.35"/>
<text xml:space="preserve" text-anchor="middle" x="369" y="-182.45" font-family="Helvetica,Arial,sans-serif" font-size="14.00">Restaurant A Serves</text>
<text xml:space="preserve" text-anchor="middle" x="369" y="-167.45" font-family="Helvetica,Arial,sans-serif" font-size="14.00">([Pod 1] [Pod 2])</text>
</g>
<!-- gateway&#45;&gt;restA -->
<g id="edge3" class="edge">
<title>gateway&#45;&gt;restA</title>
<path fill="none" stroke="black" d="M288.35,-277.22C303,-259.89 321.79,-237.64 337.55,-218.98"/>
<polygon fill="black" stroke="black" points="340.02,-221.48 343.8,-211.58 334.68,-216.96 340.02,-221.48"/>
<text xml:space="preserve" text-anchor="middle" x="334.59" y="-250.15" font-family="Helvetica,Arial,sans-serif" font-size="10.00"> /api/rest&#45;a </text>
</g>
<!-- restB -->
<g id="node7" class="node">
<title>restB</title>
<polygon fill="white" stroke="black" points="648.4,-210.15 463.6,-210.15 463.6,-206.15 459.6,-206.15 459.6,-202.15 463.6,-202.15 463.6,-159.35 459.6,-159.35 459.6,-155.35 463.6,-155.35 463.6,-151.35 648.4,-151.35 648.4,-210.15"/>
<polyline fill="none" stroke="black" points="463.6,-206.15 467.6,-206.15 467.6,-202.15 463.6,-202.15"/>
<polyline fill="none" stroke="black" points="463.6,-159.35 467.6,-159.35 467.6,-155.35 463.6,-155.35"/>
<text xml:space="preserve" text-anchor="middle" x="556" y="-182.45" font-family="Helvetica,Arial,sans-serif" font-size="14.00">Restaurant B Serves</text>
<text xml:space="preserve" text-anchor="middle" x="556" y="-167.45" font-family="Helvetica,Arial,sans-serif" font-size="14.00">([Pod 1] [Pod 2] [Pod n...])</text>
</g>
<!-- gateway&#45;&gt;restB -->
<g id="edge4" class="edge">
<title>gateway&#45;&gt;restB</title>
<path fill="none" stroke="black" d="M346.28,-282.16C380.52,-271.18 420.29,-257.05 455,-241.15 470.7,-233.96 487.1,-225 502,-216.24"/>
<polygon fill="black" stroke="black" points="503.46,-219.45 510.26,-211.31 499.88,-213.44 503.46,-219.45"/>
<text xml:space="preserve" text-anchor="middle" x="459.35" y="-250.15" font-family="Helvetica,Arial,sans-serif" font-size="10.00"> /api/rest&#45;b </text>
</g>
<!-- id_svc&#45;&gt;redis -->
<g id="edge6" class="edge">
<title>id_svc&#45;&gt;redis</title>
<path fill="none" stroke="black" d="M145.65,-152.7C127.69,-144.42 111.91,-136.62 108.5,-133.35 102.95,-128.03 98.1,-121.65 93.91,-114.96"/>
<polygon fill="black" stroke="black" points="96.99,-113.29 89,-106.34 90.91,-116.76 96.99,-113.29"/>
<text xml:space="preserve" text-anchor="middle" x="155.75" y="-123.85" font-family="Helvetica,Arial,sans-serif" font-size="10.00"> Issue &amp; Cache JWT </text>
</g>
<!-- id_db -->
<g id="node5" class="node">
<title>id_db</title>
<path fill="white" stroke="black" d="M258.52,-97.5C258.52,-101.56 235.43,-104.85 207,-104.85 178.57,-104.85 155.47,-101.56 155.47,-97.5 155.47,-97.5 155.47,-31.35 155.47,-31.35 155.47,-27.29 178.57,-24 207,-24 235.43,-24 258.52,-27.29 258.52,-31.35 258.52,-31.35 258.52,-97.5 258.52,-97.5"/>
<path fill="none" stroke="black" d="M258.52,-97.5C258.52,-93.44 235.43,-90.15 207,-90.15 178.57,-90.15 155.47,-93.44 155.47,-97.5"/>
<text xml:space="preserve" text-anchor="middle" x="207" y="-66.12" font-family="Helvetica,Arial,sans-serif" font-size="14.00">PostgreSQL</text>
<text xml:space="preserve" text-anchor="middle" x="207" y="-51.12" font-family="Helvetica,Arial,sans-serif" font-size="14.00">(User Data)</text>
</g>
<!-- id_svc&#45;&gt;id_db -->
<g id="edge7" class="edge">
<title>id_svc&#45;&gt;id_db</title>
<path fill="none" stroke="black" d="M207,-150.9C207,-140.37 207,-128.13 207,-116.26"/>
<polygon fill="black" stroke="black" points="210.5,-116.57 207,-106.57 203.5,-116.57 210.5,-116.57"/>
</g>
<!-- core_db -->
<g id="node8" class="node">
<title>core_db</title>
<path fill="white" stroke="black" d="M538.15,-97.5C538.15,-101.56 504.47,-104.85 463,-104.85 421.53,-104.85 387.85,-101.56 387.85,-97.5 387.85,-97.5 387.85,-31.35 387.85,-31.35 387.85,-27.29 421.53,-24 463,-24 504.47,-24 538.15,-27.29 538.15,-31.35 538.15,-31.35 538.15,-97.5 538.15,-97.5"/>
<path fill="none" stroke="black" d="M538.15,-97.5C538.15,-93.44 504.47,-90.15 463,-90.15 421.53,-90.15 387.85,-93.44 387.85,-97.5"/>
<text xml:space="preserve" text-anchor="middle" x="463" y="-66.12" font-family="Helvetica,Arial,sans-serif" font-size="14.00">Shared PostgreSQL</text>
<text xml:space="preserve" text-anchor="middle" x="463" y="-51.12" font-family="Helvetica,Arial,sans-serif" font-size="14.00">(Menus &amp; Orders)</text>
</g>
<!-- restA&#45;&gt;core_db -->
<g id="edge8" class="edge">
<title>restA&#45;&gt;core_db</title>
<path fill="none" stroke="black" d="M392.72,-150.9C402,-139.61 412.9,-126.36 423.31,-113.7"/>
<polygon fill="black" stroke="black" points="425.8,-116.18 429.45,-106.23 420.4,-111.73 425.8,-116.18"/>
</g>
<!-- restB&#45;&gt;core_db -->
<g id="edge9" class="edge">
<title>restB&#45;&gt;core_db</title>
<path fill="none" stroke="black" d="M532.53,-150.9C523.35,-139.61 512.57,-126.36 502.27,-113.7"/>
<polygon fill="black" stroke="black" points="505.22,-111.78 496.2,-106.23 499.79,-116.2 505.22,-111.78"/>
</g>
<!-- obs -->
<g id="node9" class="node">
<title>obs</title>
<polygon fill="#fff8e1" stroke="black" points="616.15,-336.45 453.85,-336.45 453.85,-277.65 622.15,-277.65 622.15,-330.45 616.15,-336.45"/>
<polyline fill="none" stroke="black" points="616.15,-336.45 616.15,-330.45"/>
<polyline fill="none" stroke="black" points="622.15,-330.45 616.15,-330.45"/>
<text xml:space="preserve" text-anchor="middle" x="538" y="-308.75" font-family="Helvetica,Arial,sans-serif" font-size="14.00">Prometheus &amp; Grafana</text>
<text xml:space="preserve" text-anchor="middle" x="538" y="-293.75" font-family="Helvetica,Arial,sans-serif" font-size="14.00">(Passive Monitoring)</text>
</g>
</g>
</svg>
